Coordinates
nRows=250
nColumns=2
inDegrees=yes
endheader
time	ankle_angle_r	
3.65904	  0.228765	
3.6923	  0.206893	
3.72557	  0.196960	
3.75883	  0.198264	
3.7921	  0.203357	
3.82536	  0.209553	
3.85862	  0.215975	
3.89189	  0.218922	
3.92515	  0.218286	
3.95842	  0.215980	
3.99168	  0.210841	
4.02494	  0.203256	
4.05821	  0.193915	
4.09147	  0.183192	
4.12474	  0.175105	
4.158	  0.171427	
4.19126	  0.170997	
4.22453	  0.173481	
4.25779	  0.174225	
4.29106	  0.170108	
4.32432	  0.166952	
4.35758	  0.167717	
4.39085	  0.169082	
4.42411	  0.168980	
4.45738	  0.164538	
4.49064	  0.156070	
4.5239	  0.150879	
4.55717	  0.151126	
4.59043	  0.152779	
4.6237	  0.154547	
4.65696	  0.154741	
4.69022	  0.152850	
4.72349	  0.152688	
4.75675	  0.153216	
4.79002	  0.151154	
4.82328	  0.148869	
4.85654	  0.146624	
4.88981	  0.142969	
4.92307	  0.141020	
4.95634	  0.141135	
4.9896	  0.140693	
5.02286	  0.137531	
5.05613	  0.124756	
5.08939	  0.102839	
5.12266	  0.087478	
5.15592	  0.084798	
5.18918	  0.085093	
5.22245	  0.084032	
5.25571	  0.082600	
5.28898	  0.078856	
5.32224	  0.071771	
5.3555	  0.060418	
5.38877	  0.046892	
5.42203	  0.040591	
5.4553	  0.044875	
5.48856	  0.053777	
5.52182	  0.065182	
5.55509	  0.077427	
5.58835	  0.086124	
5.62162	  0.092484	
5.65488	  0.097596	
5.68814	  0.099003	
5.72141	  0.099754	
5.75467	  0.105231	
5.78794	  0.117649	
5.8212	  0.136197	
5.85446	  0.153078	
5.88773	  0.160591	
5.92099	  0.160794	
5.95426	  0.159471	
5.98752	  0.162704	
6.02078	  0.172599	
6.05405	  0.180427	
6.08731	  0.180665	
6.12058	  0.179671	
6.15384	  0.182593	
6.1871	  0.190834	
6.22037	  0.202365	
6.25363	  0.209314	
6.2869	  0.210228	
6.32016	  0.210801	
6.35342	  0.211748	
6.38669	  0.211900	
6.41995	  0.210668	
6.45322	  0.206753	
6.48648	  0.201150	
6.51974	  0.191940	
6.55301	  0.177156	
6.58627	  0.164994	
6.61954	  0.161913	
6.6528	  0.164046	
6.68606	  0.168268	
6.71933	  0.169763	
6.75259	  0.162170	
6.78586	  0.154016	
6.81912	  0.155728	
6.85238	  0.159927	
6.88565	  0.159849	
6.91891	  0.157196	
6.95218	  0.150214	
6.98544	  0.140869	
7.0187	  0.135289	
7.05197	  0.135503	
7.08523	  0.145221	
7.1185	  0.163471	
7.15176	  0.178986	
7.18502	  0.188159	
7.21829	  0.195997	
7.25155	  0.203541	
7.28482	  0.212801	
7.31808	  0.223762	
7.35134	  0.227208	
7.38461	  0.218973	
7.41787	  0.206911	
7.45114	  0.201008	
7.4844	  0.207909	
7.51766	  0.222834	
7.55093	  0.229996	
7.58419	  0.224916	
7.61746	  0.218754	
7.65072	  0.217677	
7.68398	  0.218623	
7.71725	  0.216529	
7.75051	  0.208395	
7.78378	  0.200557	
7.81704	  0.201376	
7.8503	  0.207252	
7.88357	  0.210298	
7.91683	  0.207456	
7.9501	  0.198067	
7.98336	  0.184371	
8.01662	  0.171003	
8.04989	  0.161836	
8.08315	  0.155384	
8.11642	  0.143873	
8.14968	  0.126732	
8.18294	  0.112684	
8.21621	  0.102044	
8.24947	  0.089107	
8.28274	  0.076108	
8.316	  0.067719	
8.34926	  0.065222	
8.38253	  0.068223	
8.41579	  0.071336	
8.44906	  0.068265	
8.48232	  0.059491	
8.51558	  0.047646	
8.54885	  0.038762	
8.58211	  0.044194	
8.61538	  0.064384	
8.64864	  0.087448	
8.6819	  0.106052	
8.71517	  0.118418	
8.74843	  0.125923	
8.7817	  0.133575	
8.81496	  0.140098	
8.84822	  0.140444	
8.88149	  0.137706	
8.91475	  0.135511	
8.94802	  0.133398	
8.98128	  0.132221	
9.01454	  0.129224	
9.04781	  0.123646	
9.08107	  0.123659	
9.11434	  0.130439	
9.1476	  0.137207	
9.18086	  0.143639	
9.21413	  0.148349	
9.24739	  0.145812	
9.28066	  0.138505	
9.31392	  0.131357	
9.34718	  0.125762	
9.38045	  0.125324	
9.41371	  0.128194	
9.44698	  0.126195	
9.48024	  0.120508	
9.5135	  0.117819	
9.54677	  0.118813	
9.58003	  0.121929	
9.6133	  0.124540	
9.64656	  0.123124	
9.67982	  0.116483	
9.71309	  0.104386	
9.74635	  0.092276	
9.77962	  0.091015	
9.81288	  0.101627	
9.84614	  0.113445	
9.87941	  0.117031	
9.91267	  0.111127	
9.94594	  0.104023	
9.9792	  0.104171	
10.0125	  0.109527	
10.0457	  0.116579	
10.079	  0.125269	
10.1123	  0.132331	
10.1455	  0.136790	
10.1788	  0.140119	
10.212	  0.139453	
10.2453	  0.135239	
10.2786	  0.131940	
10.3118	  0.129001	
10.3451	  0.125049	
10.3784	  0.122163	
10.4116	  0.124433	
10.4449	  0.136253	
10.4782	  0.150597	
10.5114	  0.152510	
10.5447	  0.143220	
10.578	  0.134569	
10.6112	  0.129986	
10.6445	  0.132539	
10.6777	  0.143703	
10.711	  0.151998	
10.7443	  0.150247	
10.7775	  0.146358	
10.8108	  0.147591	
10.8441	  0.156396	
10.8773	  0.171058	
10.9106	  0.182134	
10.9439	  0.185542	
10.9771	  0.186413	
11.0104	  0.184960	
11.0436	  0.182540	
11.0769	  0.187470	
11.1102	  0.200042	
11.1434	  0.212028	
11.1767	  0.216039	
11.21	  0.209036	
11.2432	  0.200559	
11.2765	  0.202561	
11.3098	  0.208998	
11.343	  0.209665	
11.3763	  0.206375	
11.4096	  0.202811	
11.4428	  0.200738	
11.4761	  0.199717	
11.5093	  0.194671	
11.5426	  0.184631	
11.5759	  0.172426	
11.6091	  0.158653	
11.6424	  0.146992	
11.6757	  0.141934	
11.7089	  0.142489	
11.7422	  0.143435	
11.7755	  0.137087	
11.8087	  0.122506	
11.842	  0.110306	
11.8752	  0.108497	
11.9085	  0.114237	
11.9418	  0.122052	
